<mxfile host="app.diagrams.net" agent="Mozilla/5.0 (Windows NT 10.0; Win64; x64) AppleWebKit/537.36 (KHTML, like Gecko) Chrome/140.0.0.0 Safari/537.36" version="28.2.0">
  <diagram name="PÃ¡gina-1" id="tlKgyYUkPcTbA9fnqTeT">
    <mxGraphModel dx="1426" dy="785" grid="0" gridSize="10" guides="1" tooltips="1" connect="1" arrows="1" fold="1" page="1" pageScale="1" pageWidth="850" pageHeight="1100" background="light-dark(#FFFFFF,#FFFFFF)" math="0" shadow="0">
      <root>
        <mxCell id="0" />
        <mxCell id="1" parent="0" />
        <mxCell id="nQe1YU0NzkKYAWia5BcY-1" value="Client" style="sketch=0;outlineConnect=0;fontColor=light-dark(#232F3E,#000000);gradientColor=none;fillColor=#232F3D;strokeColor=light-dark(#000000,#000000);dashed=0;verticalLabelPosition=bottom;verticalAlign=top;align=center;html=1;fontSize=12;fontStyle=0;aspect=fixed;pointerEvents=1;shape=mxgraph.aws4.client;" vertex="1" parent="1">
          <mxGeometry x="58" y="263" width="78" height="76" as="geometry" />
        </mxCell>
        <mxCell id="nQe1YU0NzkKYAWia5BcY-2" value="&lt;font style=&quot;font-size: 18px;&quot;&gt;Kairos&lt;/font&gt;" style="swimlane;whiteSpace=wrap;html=1;startSize=40;fillColor=light-dark(#FFFFFF,#FFFFFF);fontColor=light-dark(#232F3E,#000000);strokeColor=light-dark(#000000,#000000);" vertex="1" parent="1">
          <mxGeometry x="210" y="40" width="1058" height="779" as="geometry" />
        </mxCell>
        <mxCell id="nQe1YU0NzkKYAWia5BcY-62" value="" style="rounded=0;whiteSpace=wrap;html=1;fillColor=light-dark(#FFFFFF,#FFFFFF);strokeColor=light-dark(#000000,#000000);" vertex="1" parent="nQe1YU0NzkKYAWia5BcY-2">
          <mxGeometry y="636" width="371" height="143" as="geometry" />
        </mxCell>
        <mxCell id="nQe1YU0NzkKYAWia5BcY-3" value="API Gateway" style="sketch=0;outlineConnect=0;fontColor=light-dark(#232F3E,#000000);gradientColor=none;fillColor=#E7157B;strokeColor=light-dark(#000000,#000000);dashed=0;verticalLabelPosition=bottom;verticalAlign=top;align=center;html=1;fontSize=12;fontStyle=0;aspect=fixed;pointerEvents=1;shape=mxgraph.aws4.endpoint;" vertex="1" parent="nQe1YU0NzkKYAWia5BcY-2">
          <mxGeometry x="71" y="223" width="78" height="78" as="geometry" />
        </mxCell>
        <mxCell id="nQe1YU0NzkKYAWia5BcY-6" value="DynamoDB&lt;div&gt;&lt;br&gt;&lt;/div&gt;" style="outlineConnect=0;dashed=0;verticalLabelPosition=bottom;verticalAlign=top;align=center;html=1;shape=mxgraph.aws3.dynamo_db;fillColor=#2E73B8;gradientColor=none;fontColor=light-dark(#232F3E,#000000);strokeColor=light-dark(#000000,#000000);" vertex="1" parent="nQe1YU0NzkKYAWia5BcY-2">
          <mxGeometry x="425" y="78" width="72" height="81" as="geometry" />
        </mxCell>
        <mxCell id="nQe1YU0NzkKYAWia5BcY-13" value="" style="endArrow=classic;html=1;rounded=0;fontColor=light-dark(#232F3E,#000000);strokeColor=light-dark(#000000,#000000);" edge="1" parent="nQe1YU0NzkKYAWia5BcY-2" source="nQe1YU0NzkKYAWia5BcY-3" target="nQe1YU0NzkKYAWia5BcY-16">
          <mxGeometry width="50" height="50" relative="1" as="geometry">
            <mxPoint x="191" y="495" as="sourcePoint" />
            <mxPoint x="241" y="445" as="targetPoint" />
          </mxGeometry>
        </mxCell>
        <mxCell id="nQe1YU0NzkKYAWia5BcY-15" value="" style="endArrow=classic;startArrow=classic;html=1;rounded=0;fontColor=light-dark(#232F3E,#000000);strokeColor=light-dark(#000000,#000000);edgeStyle=orthogonalEdgeStyle;strokeWidth=1;" edge="1" parent="nQe1YU0NzkKYAWia5BcY-2" source="nQe1YU0NzkKYAWia5BcY-6" target="nQe1YU0NzkKYAWia5BcY-16">
          <mxGeometry width="50" height="50" relative="1" as="geometry">
            <mxPoint x="221" y="425" as="sourcePoint" />
            <mxPoint x="271" y="375" as="targetPoint" />
          </mxGeometry>
        </mxCell>
        <mxCell id="nQe1YU0NzkKYAWia5BcY-16" value="Lambda Function&lt;div&gt;&lt;b&gt;API Calendarizar Procesos&lt;/b&gt;&lt;/div&gt;" style="sketch=0;outlineConnect=0;fontColor=light-dark(#232F3E,#000000);gradientColor=none;fillColor=#ED7100;strokeColor=light-dark(#000000,#000000);dashed=0;verticalLabelPosition=bottom;verticalAlign=top;align=center;html=1;fontSize=12;fontStyle=0;aspect=fixed;pointerEvents=1;shape=mxgraph.aws4.lambda_function;" vertex="1" parent="nQe1YU0NzkKYAWia5BcY-2">
          <mxGeometry x="231" y="223.5" width="77.5" height="77.5" as="geometry" />
        </mxCell>
        <mxCell id="nQe1YU0NzkKYAWia5BcY-23" value="" style="endArrow=classic;startArrow=classic;html=1;rounded=0;fontColor=light-dark(#232F3E,#000000);strokeColor=light-dark(#000000,#000000);" edge="1" parent="nQe1YU0NzkKYAWia5BcY-2" source="nQe1YU0NzkKYAWia5BcY-10" target="nQe1YU0NzkKYAWia5BcY-16">
          <mxGeometry width="50" height="50" relative="1" as="geometry">
            <mxPoint x="454" y="484" as="sourcePoint" />
            <mxPoint x="360" y="372" as="targetPoint" />
          </mxGeometry>
        </mxCell>
        <mxCell id="nQe1YU0NzkKYAWia5BcY-25" value="" style="endArrow=classic;html=1;rounded=0;fontColor=light-dark(#232F3E,#000000);strokeColor=light-dark(#000000,#000000);edgeStyle=orthogonalEdgeStyle;strokeWidth=1;" edge="1" parent="nQe1YU0NzkKYAWia5BcY-2" source="nQe1YU0NzkKYAWia5BcY-6" target="nQe1YU0NzkKYAWia5BcY-21">
          <mxGeometry width="50" height="50" relative="1" as="geometry">
            <mxPoint x="168" y="220" as="sourcePoint" />
            <mxPoint x="250" y="220" as="targetPoint" />
          </mxGeometry>
        </mxCell>
        <mxCell id="nQe1YU0NzkKYAWia5BcY-7" value="Parameter Store" style="sketch=0;outlineConnect=0;fontColor=light-dark(#232F3E,#000000);gradientColor=none;fillColor=#E7157B;strokeColor=light-dark(#000000,#000000);dashed=0;verticalLabelPosition=bottom;verticalAlign=top;align=center;html=1;fontSize=12;fontStyle=0;aspect=fixed;pointerEvents=1;shape=mxgraph.aws4.parameter_store;" vertex="1" parent="nQe1YU0NzkKYAWia5BcY-2">
          <mxGeometry x="46" y="664" width="60.58" height="63" as="geometry" />
        </mxCell>
        <mxCell id="nQe1YU0NzkKYAWia5BcY-8" value="CloudWatch Logs" style="sketch=0;outlineConnect=0;fontColor=light-dark(#232F3E,#000000);gradientColor=none;fillColor=#E7157B;strokeColor=light-dark(#000000,#000000);dashed=0;verticalLabelPosition=bottom;verticalAlign=top;align=center;html=1;fontSize=12;fontStyle=0;aspect=fixed;pointerEvents=1;shape=mxgraph.aws4.cloudwatch_logs;" vertex="1" parent="nQe1YU0NzkKYAWia5BcY-2">
          <mxGeometry x="159" y="677" width="67.24" height="50" as="geometry" />
        </mxCell>
        <mxCell id="nQe1YU0NzkKYAWia5BcY-9" value="IAM Role" style="sketch=0;outlineConnect=0;fontColor=light-dark(#232F3E,#000000);gradientColor=none;fillColor=#DD344C;strokeColor=light-dark(#000000,#000000);dashed=0;verticalLabelPosition=bottom;verticalAlign=top;align=center;html=1;fontSize=12;fontStyle=0;aspect=fixed;pointerEvents=1;shape=mxgraph.aws4.role;" vertex="1" parent="nQe1YU0NzkKYAWia5BcY-2">
          <mxGeometry x="262" y="683" width="78" height="44" as="geometry" />
        </mxCell>
        <mxCell id="nQe1YU0NzkKYAWia5BcY-10" value="EventBridge Scheduler" style="sketch=0;outlineConnect=0;fontColor=light-dark(#232F3E,#000000);gradientColor=none;fillColor=#E7157B;strokeColor=light-dark(#000000,#000000);dashed=0;verticalLabelPosition=bottom;verticalAlign=top;align=center;html=1;fontSize=12;fontStyle=0;aspect=fixed;pointerEvents=1;shape=mxgraph.aws4.eventbridge_scheduler;" vertex="1" parent="nQe1YU0NzkKYAWia5BcY-2">
          <mxGeometry x="422" y="223" width="78" height="78" as="geometry" />
        </mxCell>
        <mxCell id="nQe1YU0NzkKYAWia5BcY-11" value="SQS Queue" style="sketch=0;outlineConnect=0;fontColor=light-dark(#232F3E,#000000);gradientColor=none;fillColor=#E7157B;strokeColor=light-dark(#000000,#000000);dashed=0;verticalLabelPosition=bottom;verticalAlign=top;align=center;html=1;fontSize=12;fontStyle=0;aspect=fixed;pointerEvents=1;shape=mxgraph.aws4.queue;" vertex="1" parent="nQe1YU0NzkKYAWia5BcY-2">
          <mxGeometry x="756" y="238.75" width="78" height="47" as="geometry" />
        </mxCell>
        <mxCell id="nQe1YU0NzkKYAWia5BcY-12" value="SQS DLQ" style="sketch=0;outlineConnect=0;fontColor=light-dark(#232F3E,#000000);gradientColor=none;fillColor=#E7157B;strokeColor=light-dark(#000000,#000000);dashed=0;verticalLabelPosition=bottom;verticalAlign=top;align=center;html=1;fontSize=12;fontStyle=0;aspect=fixed;pointerEvents=1;shape=mxgraph.aws4.queue;" vertex="1" parent="nQe1YU0NzkKYAWia5BcY-2">
          <mxGeometry x="756" y="369" width="78" height="47" as="geometry" />
        </mxCell>
        <mxCell id="nQe1YU0NzkKYAWia5BcY-17" value="CloudWatch Alarm" style="sketch=0;outlineConnect=0;fontColor=light-dark(#232F3E,#000000);gradientColor=none;fillColor=#E7157B;strokeColor=light-dark(#000000,#000000);dashed=0;verticalLabelPosition=bottom;verticalAlign=top;align=center;html=1;fontSize=12;fontStyle=0;aspect=fixed;pointerEvents=1;shape=mxgraph.aws4.alarm;" vertex="1" parent="nQe1YU0NzkKYAWia5BcY-2">
          <mxGeometry x="756" y="483" width="78" height="78" as="geometry" />
        </mxCell>
        <mxCell id="nQe1YU0NzkKYAWia5BcY-21" value="Lambda Function&lt;div&gt;&lt;b&gt;Lambda Dispatcher&lt;/b&gt;&lt;/div&gt;" style="sketch=0;outlineConnect=0;fontColor=light-dark(#232F3E,#000000);gradientColor=none;fillColor=#ED7100;strokeColor=light-dark(#000000,#000000);dashed=0;verticalLabelPosition=bottom;verticalAlign=top;align=center;html=1;fontSize=12;fontStyle=0;aspect=fixed;pointerEvents=1;shape=mxgraph.aws4.lambda_function;" vertex="1" parent="nQe1YU0NzkKYAWia5BcY-2">
          <mxGeometry x="593" y="223" width="77.5" height="77.5" as="geometry" />
        </mxCell>
        <mxCell id="nQe1YU0NzkKYAWia5BcY-26" value="" style="endArrow=classic;html=1;rounded=0;fontColor=light-dark(#232F3E,#000000);strokeColor=light-dark(#000000,#000000);" edge="1" parent="nQe1YU0NzkKYAWia5BcY-2" source="nQe1YU0NzkKYAWia5BcY-10" target="nQe1YU0NzkKYAWia5BcY-21">
          <mxGeometry width="50" height="50" relative="1" as="geometry">
            <mxPoint x="600" y="475" as="sourcePoint" />
            <mxPoint x="696" y="363" as="targetPoint" />
          </mxGeometry>
        </mxCell>
        <mxCell id="nQe1YU0NzkKYAWia5BcY-27" value="Lambda Function&lt;div&gt;&lt;b&gt;Lambda Executor&lt;/b&gt;&lt;/div&gt;" style="sketch=0;outlineConnect=0;fontColor=light-dark(#232F3E,#000000);gradientColor=none;fillColor=#ED7100;strokeColor=light-dark(#000000,#000000);dashed=0;verticalLabelPosition=bottom;verticalAlign=top;align=center;html=1;fontSize=12;fontStyle=0;aspect=fixed;pointerEvents=1;shape=mxgraph.aws4.lambda_function;" vertex="1" parent="nQe1YU0NzkKYAWia5BcY-2">
          <mxGeometry x="932" y="223.5" width="77.5" height="77.5" as="geometry" />
        </mxCell>
        <mxCell id="nQe1YU0NzkKYAWia5BcY-28" value="" style="endArrow=classic;html=1;rounded=0;fontColor=light-dark(#232F3E,#000000);strokeColor=light-dark(#000000,#000000);" edge="1" parent="nQe1YU0NzkKYAWia5BcY-2" source="nQe1YU0NzkKYAWia5BcY-21" target="nQe1YU0NzkKYAWia5BcY-11">
          <mxGeometry width="50" height="50" relative="1" as="geometry">
            <mxPoint x="654" y="447" as="sourcePoint" />
            <mxPoint x="295" y="260" as="targetPoint" />
          </mxGeometry>
        </mxCell>
        <mxCell id="nQe1YU0NzkKYAWia5BcY-29" value="" style="endArrow=classic;html=1;rounded=0;fontColor=light-dark(#232F3E,#000000);strokeColor=light-dark(#000000,#000000);" edge="1" parent="nQe1YU0NzkKYAWia5BcY-2" source="nQe1YU0NzkKYAWia5BcY-11" target="nQe1YU0NzkKYAWia5BcY-12">
          <mxGeometry width="50" height="50" relative="1" as="geometry">
            <mxPoint x="758" y="327" as="sourcePoint" />
            <mxPoint x="851" y="327" as="targetPoint" />
          </mxGeometry>
        </mxCell>
        <mxCell id="nQe1YU0NzkKYAWia5BcY-30" value="" style="endArrow=classic;html=1;rounded=0;fontColor=light-dark(#232F3E,#000000);strokeColor=light-dark(#000000,#000000);" edge="1" parent="nQe1YU0NzkKYAWia5BcY-2" source="nQe1YU0NzkKYAWia5BcY-12" target="nQe1YU0NzkKYAWia5BcY-17">
          <mxGeometry width="50" height="50" relative="1" as="geometry">
            <mxPoint x="799" y="373" as="sourcePoint" />
            <mxPoint x="799" y="456" as="targetPoint" />
          </mxGeometry>
        </mxCell>
        <mxCell id="nQe1YU0NzkKYAWia5BcY-18" value="SNS Email Notification" style="sketch=0;outlineConnect=0;fontColor=light-dark(#232F3E,#000000);gradientColor=none;fillColor=#E7157B;strokeColor=light-dark(#000000,#000000);dashed=0;verticalLabelPosition=bottom;verticalAlign=top;align=center;html=1;fontSize=12;fontStyle=0;aspect=fixed;pointerEvents=1;shape=mxgraph.aws4.email_notification;" vertex="1" parent="nQe1YU0NzkKYAWia5BcY-2">
          <mxGeometry x="756" y="640" width="78" height="78" as="geometry" />
        </mxCell>
        <mxCell id="nQe1YU0NzkKYAWia5BcY-31" value="" style="endArrow=classic;html=1;rounded=0;fontColor=light-dark(#232F3E,#000000);strokeColor=light-dark(#000000,#000000);" edge="1" parent="nQe1YU0NzkKYAWia5BcY-2" source="nQe1YU0NzkKYAWia5BcY-17" target="nQe1YU0NzkKYAWia5BcY-18">
          <mxGeometry width="50" height="50" relative="1" as="geometry">
            <mxPoint x="923" y="460" as="sourcePoint" />
            <mxPoint x="790" y="523" as="targetPoint" />
          </mxGeometry>
        </mxCell>
        <mxCell id="nQe1YU0NzkKYAWia5BcY-32" value="" style="endArrow=classic;html=1;rounded=0;fontColor=light-dark(#232F3E,#000000);strokeColor=light-dark(#000000,#000000);" edge="1" parent="nQe1YU0NzkKYAWia5BcY-2" source="nQe1YU0NzkKYAWia5BcY-11" target="nQe1YU0NzkKYAWia5BcY-27">
          <mxGeometry width="50" height="50" relative="1" as="geometry">
            <mxPoint x="716" y="267" as="sourcePoint" />
            <mxPoint x="809" y="267" as="targetPoint" />
          </mxGeometry>
        </mxCell>
        <mxCell id="nQe1YU0NzkKYAWia5BcY-55" value="SQS DLQ" style="sketch=0;outlineConnect=0;fontColor=light-dark(#232F3E,#000000);gradientColor=none;fillColor=#E7157B;strokeColor=light-dark(#000000,#000000);dashed=0;verticalLabelPosition=bottom;verticalAlign=top;align=center;html=1;fontSize=12;fontStyle=0;aspect=fixed;pointerEvents=1;shape=mxgraph.aws4.queue;" vertex="1" parent="nQe1YU0NzkKYAWia5BcY-2">
          <mxGeometry x="422" y="369" width="78" height="47" as="geometry" />
        </mxCell>
        <mxCell id="nQe1YU0NzkKYAWia5BcY-56" value="" style="endArrow=classic;html=1;rounded=0;fontColor=light-dark(#232F3E,#000000);strokeColor=light-dark(#000000,#000000);" edge="1" parent="nQe1YU0NzkKYAWia5BcY-2" source="nQe1YU0NzkKYAWia5BcY-10" target="nQe1YU0NzkKYAWia5BcY-55">
          <mxGeometry width="50" height="50" relative="1" as="geometry">
            <mxPoint x="791" y="328" as="sourcePoint" />
            <mxPoint x="791" y="411" as="targetPoint" />
          </mxGeometry>
        </mxCell>
        <mxCell id="nQe1YU0NzkKYAWia5BcY-57" value="CloudWatch Alarm" style="sketch=0;outlineConnect=0;fontColor=light-dark(#232F3E,#000000);gradientColor=none;fillColor=#E7157B;strokeColor=light-dark(#000000,#000000);dashed=0;verticalLabelPosition=bottom;verticalAlign=top;align=center;html=1;fontSize=12;fontStyle=0;aspect=fixed;pointerEvents=1;shape=mxgraph.aws4.alarm;" vertex="1" parent="nQe1YU0NzkKYAWia5BcY-2">
          <mxGeometry x="425" y="483" width="78" height="78" as="geometry" />
        </mxCell>
        <mxCell id="nQe1YU0NzkKYAWia5BcY-58" value="SNS Email Notification" style="sketch=0;outlineConnect=0;fontColor=light-dark(#232F3E,#000000);gradientColor=none;fillColor=#E7157B;strokeColor=light-dark(#000000,#000000);dashed=0;verticalLabelPosition=bottom;verticalAlign=top;align=center;html=1;fontSize=12;fontStyle=0;aspect=fixed;pointerEvents=1;shape=mxgraph.aws4.email_notification;" vertex="1" parent="nQe1YU0NzkKYAWia5BcY-2">
          <mxGeometry x="425" y="640" width="78" height="78" as="geometry" />
        </mxCell>
        <mxCell id="nQe1YU0NzkKYAWia5BcY-60" value="" style="endArrow=classic;html=1;rounded=0;fontColor=light-dark(#232F3E,#000000);strokeColor=light-dark(#000000,#000000);" edge="1" parent="nQe1YU0NzkKYAWia5BcY-2" source="nQe1YU0NzkKYAWia5BcY-57" target="nQe1YU0NzkKYAWia5BcY-58">
          <mxGeometry width="50" height="50" relative="1" as="geometry">
            <mxPoint x="549" y="773" as="sourcePoint" />
            <mxPoint x="637" y="865" as="targetPoint" />
          </mxGeometry>
        </mxCell>
        <mxCell id="nQe1YU0NzkKYAWia5BcY-61" value="" style="endArrow=classic;html=1;rounded=0;fontColor=light-dark(#232F3E,#000000);strokeColor=light-dark(#000000,#000000);" edge="1" parent="nQe1YU0NzkKYAWia5BcY-2" source="nQe1YU0NzkKYAWia5BcY-55" target="nQe1YU0NzkKYAWia5BcY-57">
          <mxGeometry width="50" height="50" relative="1" as="geometry">
            <mxPoint x="469" y="677" as="sourcePoint" />
            <mxPoint x="469" y="756" as="targetPoint" />
          </mxGeometry>
        </mxCell>
        <mxCell id="nQe1YU0NzkKYAWia5BcY-4" value="" style="endArrow=classic;html=1;rounded=0;fontColor=light-dark(#232F3E,#000000);strokeColor=light-dark(#000000,#000000);" edge="1" parent="1" source="nQe1YU0NzkKYAWia5BcY-1" target="nQe1YU0NzkKYAWia5BcY-3">
          <mxGeometry width="50" height="50" relative="1" as="geometry">
            <mxPoint x="155" y="370" as="sourcePoint" />
            <mxPoint x="205" y="320" as="targetPoint" />
          </mxGeometry>
        </mxCell>
        <mxCell id="nQe1YU0NzkKYAWia5BcY-5" value="&lt;font style=&quot;font-size: 10px;&quot;&gt;API Key&lt;/font&gt;" style="text;html=1;align=center;verticalAlign=middle;resizable=0;points=[];autosize=1;strokeColor=none;fillColor=none;fontColor=light-dark(#232F3E,#000000);" vertex="1" parent="1">
          <mxGeometry x="150" y="271" width="60" height="30" as="geometry" />
        </mxCell>
        <mxCell id="nQe1YU0NzkKYAWia5BcY-20" value="Production Team" style="sketch=0;outlineConnect=0;fontColor=light-dark(#000000,#000000);gradientColor=none;fillColor=#232F3D;strokeColor=none;dashed=0;verticalLabelPosition=bottom;verticalAlign=top;align=center;html=1;fontSize=12;fontStyle=0;aspect=fixed;pointerEvents=1;shape=mxgraph.aws4.users;" vertex="1" parent="1">
          <mxGeometry x="803" y="863" width="78" height="78" as="geometry" />
        </mxCell>
        <mxCell id="nQe1YU0NzkKYAWia5BcY-54" value="" style="endArrow=classic;html=1;rounded=0;fontColor=light-dark(#232F3E,#000000);strokeColor=light-dark(#000000,#000000);edgeStyle=orthogonalEdgeStyle;" edge="1" parent="1" source="nQe1YU0NzkKYAWia5BcY-18" target="nQe1YU0NzkKYAWia5BcY-20">
          <mxGeometry width="50" height="50" relative="1" as="geometry">
            <mxPoint x="1085" y="629" as="sourcePoint" />
            <mxPoint x="1203" y="562" as="targetPoint" />
          </mxGeometry>
        </mxCell>
        <mxCell id="nQe1YU0NzkKYAWia5BcY-59" value="" style="endArrow=classic;html=1;rounded=0;fontColor=light-dark(#232F3E,#000000);strokeColor=light-dark(#000000,#000000);edgeStyle=orthogonalEdgeStyle;" edge="1" parent="1" source="nQe1YU0NzkKYAWia5BcY-58" target="nQe1YU0NzkKYAWia5BcY-20">
          <mxGeometry width="50" height="50" relative="1" as="geometry">
            <mxPoint x="1008" y="798" as="sourcePoint" />
            <mxPoint x="917" y="890" as="targetPoint" />
          </mxGeometry>
        </mxCell>
        <mxCell id="nQe1YU0NzkKYAWia5BcY-66" value="" style="edgeStyle=orthogonalEdgeStyle;rounded=0;orthogonalLoop=1;jettySize=auto;html=1;" edge="1" parent="1">
          <mxGeometry relative="1" as="geometry">
            <mxPoint x="1438.8000000000002" y="238.5" as="sourcePoint" />
            <mxPoint x="1438.75" y="318.5" as="targetPoint" />
          </mxGeometry>
        </mxCell>
        <mxCell id="nQe1YU0NzkKYAWia5BcY-67" value="External Step Function" style="outlineConnect=0;dashed=0;verticalLabelPosition=bottom;verticalAlign=top;align=center;html=1;shape=mxgraph.aws3.step_functions;fillColor=#D9A741;gradientColor=none;fontColor=light-dark(#000000,#000000);" vertex="1" parent="1">
          <mxGeometry x="1406" y="293" width="76.5" height="93" as="geometry" />
        </mxCell>
        <mxCell id="nQe1YU0NzkKYAWia5BcY-68" value="External Lambda Function" style="outlineConnect=0;dashed=0;verticalLabelPosition=bottom;verticalAlign=top;align=center;html=1;shape=mxgraph.aws3.lambda;fillColor=#F58534;gradientColor=none;fontColor=light-dark(#000000,#000000);" vertex="1" parent="1">
          <mxGeometry x="1406" y="131" width="76.5" height="93" as="geometry" />
        </mxCell>
        <mxCell id="nQe1YU0NzkKYAWia5BcY-69" value="&lt;font style=&quot;color: light-dark(rgb(0, 0, 0), rgb(0, 0, 0));&quot;&gt;External SQS Queue&lt;/font&gt;" style="outlineConnect=0;dashed=0;verticalLabelPosition=bottom;verticalAlign=top;align=center;html=1;shape=mxgraph.aws3.sqs;fillColor=#D9A741;gradientColor=none;" vertex="1" parent="1">
          <mxGeometry x="1406" y="460" width="76.5" height="93" as="geometry" />
        </mxCell>
        <mxCell id="nQe1YU0NzkKYAWia5BcY-70" value="External SNS Topic" style="outlineConnect=0;dashed=0;verticalLabelPosition=bottom;verticalAlign=top;align=center;html=1;shape=mxgraph.aws3.sns;fillColor=#D9A741;gradientColor=none;fontColor=light-dark(#000000,#000000);" vertex="1" parent="1">
          <mxGeometry x="1406" y="627" width="76.5" height="76.5" as="geometry" />
        </mxCell>
        <mxCell id="nQe1YU0NzkKYAWia5BcY-71" value="" style="endArrow=classic;html=1;rounded=0;fontColor=light-dark(#232F3E,#000000);strokeColor=light-dark(#000000,#000000);edgeStyle=elbowEdgeStyle;strokeWidth=1;" edge="1" parent="1" source="nQe1YU0NzkKYAWia5BcY-27" target="nQe1YU0NzkKYAWia5BcY-68">
          <mxGeometry width="50" height="50" relative="1" as="geometry">
            <mxPoint x="1089" y="301" as="sourcePoint" />
            <mxPoint x="1201" y="301" as="targetPoint" />
          </mxGeometry>
        </mxCell>
        <mxCell id="nQe1YU0NzkKYAWia5BcY-72" value="" style="endArrow=classic;html=1;rounded=0;fontColor=light-dark(#232F3E,#000000);strokeColor=light-dark(#000000,#000000);edgeStyle=elbowEdgeStyle;spacing=2;fontSize=11;strokeWidth=1;" edge="1" parent="1" source="nQe1YU0NzkKYAWia5BcY-27" target="nQe1YU0NzkKYAWia5BcY-70">
          <mxGeometry width="50" height="50" relative="1" as="geometry">
            <mxPoint x="1219" y="502" as="sourcePoint" />
            <mxPoint x="1331" y="502" as="targetPoint" />
          </mxGeometry>
        </mxCell>
        <mxCell id="nQe1YU0NzkKYAWia5BcY-73" value="" style="endArrow=classic;html=1;rounded=0;fontColor=light-dark(#232F3E,#000000);strokeColor=light-dark(#000000,#000000);edgeStyle=elbowEdgeStyle;strokeWidth=1;" edge="1" parent="1" source="nQe1YU0NzkKYAWia5BcY-27" target="nQe1YU0NzkKYAWia5BcY-69">
          <mxGeometry width="50" height="50" relative="1" as="geometry">
            <mxPoint x="1293" y="339" as="sourcePoint" />
            <mxPoint x="1404" y="601" as="targetPoint" />
          </mxGeometry>
        </mxCell>
        <mxCell id="nQe1YU0NzkKYAWia5BcY-74" value="" style="endArrow=classic;html=1;rounded=0;fontColor=light-dark(#232F3E,#000000);strokeColor=light-dark(#000000,#000000);edgeStyle=elbowEdgeStyle;strokeWidth=1;" edge="1" parent="1" source="nQe1YU0NzkKYAWia5BcY-27" target="nQe1YU0NzkKYAWia5BcY-67">
          <mxGeometry width="50" height="50" relative="1" as="geometry">
            <mxPoint x="1330" y="381" as="sourcePoint" />
            <mxPoint x="1503" y="522" as="targetPoint" />
          </mxGeometry>
        </mxCell>
        <mxCell id="nQe1YU0NzkKYAWia5BcY-75" value="&lt;font style=&quot;color: light-dark(rgb(0, 0, 0), rgb(0, 0, 0));&quot;&gt;Publish&lt;/font&gt;" style="text;html=1;align=center;verticalAlign=middle;resizable=0;points=[];autosize=1;strokeColor=none;fillColor=none;" vertex="1" parent="1">
          <mxGeometry x="1313" y="666" width="57" height="26" as="geometry" />
        </mxCell>
        <mxCell id="nQe1YU0NzkKYAWia5BcY-76" value="&lt;font style=&quot;color: light-dark(rgb(0, 0, 0), rgb(0, 0, 0));&quot;&gt;Send&amp;nbsp;&lt;/font&gt;&lt;div&gt;&lt;font style=&quot;color: light-dark(rgb(0, 0, 0), rgb(0, 0, 0));&quot;&gt;Message&lt;/font&gt;&lt;/div&gt;" style="text;html=1;align=center;verticalAlign=middle;resizable=0;points=[];autosize=1;strokeColor=none;fillColor=none;" vertex="1" parent="1">
          <mxGeometry x="1313" y="506" width="67" height="41" as="geometry" />
        </mxCell>
        <mxCell id="nQe1YU0NzkKYAWia5BcY-77" value="&lt;font&gt;Start&lt;/font&gt;&lt;div&gt;&lt;font&gt;Execution&lt;/font&gt;&lt;/div&gt;" style="text;html=1;align=center;verticalAlign=middle;resizable=0;points=[];autosize=1;strokeColor=none;fillColor=none;fontColor=light-dark(#000000,#000000);" vertex="1" parent="1">
          <mxGeometry x="1313" y="339" width="71" height="41" as="geometry" />
        </mxCell>
        <mxCell id="nQe1YU0NzkKYAWia5BcY-78" value="&lt;font&gt;Invoke&lt;/font&gt;" style="text;html=1;align=center;verticalAlign=middle;resizable=0;points=[];autosize=1;strokeColor=none;fillColor=none;fontColor=light-dark(#000000,#000000);" vertex="1" parent="1">
          <mxGeometry x="1313" y="178" width="53" height="26" as="geometry" />
        </mxCell>
      </root>
    </mxGraphModel>
  </diagram>
</mxfile>
